<?xml version="1.0" standalone="no"?>
<!DOCTYPE svg PUBLIC "-//W3C//DTD SVG 20010904//EN"
 "http://www.w3.org/TR/2001/REC-SVG-20010904/DTD/svg10.dtd">
<svg version="1.0" xmlns="http://www.w3.org/2000/svg"
 width="324.000000pt" height="299.000000pt" viewBox="0 0 324.000000 299.000000"
 preserveAspectRatio="xMidYMid meet">
<metadata>
Created by potrace 1.16, written by Peter Selinger 2001-2019
</metadata>
<g transform="translate(0.000000,299.000000) scale(0.100000,-0.100000)"
fill="#000000" stroke="none">
<path d="M1435 2399 c-33 -5 -71 -7 -85 -4 -17 4 -21 3 -12 -3 10 -7 4 -11
-22 -16 -20 -4 -41 -4 -46 -1 -6 3 -10 1 -10 -5 0 -7 -7 -9 -16 -6 -8 3 -13 2
-10 -2 7 -12 -61 -35 -75 -26 -8 5 -9 3 -4 -6 6 -10 4 -12 -11 -6 -10 4 -15 4
-11 0 8 -8 -42 -36 -53 -29 -4 3 -10 -2 -14 -10 -3 -8 -12 -15 -21 -15 -8 0
-15 -5 -15 -11 0 -6 -7 -9 -15 -5 -8 3 -14 1 -12 -3 2 -10 -77 -71 -93 -71 -5
0 -10 -5 -10 -11 0 -5 -5 -7 -12 -3 -7 4 -8 3 -4 -4 4 -6 -6 -19 -21 -29 -32
-20 -86 -70 -63 -57 13 7 13 5 1 -9 -7 -9 -18 -14 -24 -10 -5 3 -8 2 -5 -3 7
-11 -67 -116 -76 -107 -3 3 -6 0 -6 -7 0 -8 -18 -48 -39 -90 -83 -159 -113
-307 -109 -526 2 -78 6 -137 10 -131 4 7 8 -2 9 -20 3 -53 4 -58 10 -63 3 -3
14 -30 24 -60 10 -30 29 -79 43 -110 14 -30 26 -58 26 -62 1 -4 7 -13 14 -19
6 -7 12 -19 12 -26 0 -7 4 -13 9 -13 5 0 32 -31 62 -70 29 -38 56 -70 60 -70
4 0 16 -16 28 -36 12 -19 25 -33 29 -30 5 3 30 -14 55 -38 26 -24 47 -40 47
-37 0 3 4 1 8 -5 8 -14 164 -94 181 -94 7 0 9 -4 6 -10 -3 -6 1 -7 9 -4 9 3
16 2 16 -3 0 -5 8 -9 18 -10 30 -3 162 -39 158 -44 -5 -5 21 -6 199 -6 77 0
158 -1 179 -1 27 0 35 3 25 9 -11 7 -10 9 6 10 11 0 31 3 45 6 14 3 34 6 45 7
11 0 26 7 33 14 13 12 34 16 61 13 8 -2 10 2 5 10 -5 9 -2 10 9 6 10 -3 17 -2
17 4 0 6 5 7 10 4 6 -3 10 -2 10 2 0 5 17 17 38 28 20 11 52 29 71 42 19 12
39 19 44 16 6 -3 7 -1 3 5 -8 13 28 35 39 24 3 -4 5 -2 4 3 -2 6 38 50 88 100
51 49 97 100 102 113 6 13 16 20 21 17 6 -4 10 -3 9 2 -4 21 2 34 13 27 7 -4
8 -3 4 4 -10 16 12 54 26 46 6 -4 8 -3 4 4 -9 14 14 63 27 55 6 -3 7 -1 4 5
-9 13 2 44 13 37 5 -3 6 5 2 17 -4 16 -2 19 8 13 8 -5 11 -4 7 2 -4 6 2 35 12
64 10 30 21 75 25 102 4 26 10 47 14 47 11 0 -4 351 -18 393 -6 22 -9 46 -5
55 3 9 3 13 -1 9 -9 -9 -55 113 -48 125 3 4 0 8 -7 8 -7 0 -10 3 -6 6 3 4 -5
21 -19 40 -15 20 -23 38 -18 46 4 7 4 10 -1 6 -11 -11 -58 60 -49 74 4 7 3 8
-4 4 -11 -6 -38 31 -34 46 1 5 -2 7 -7 5 -9 -2 -121 110 -121 123 0 4 -8 14
-17 21 -17 13 -17 13 -3 -5 8 -11 -10 -1 -40 22 -30 23 -59 42 -63 42 -5 0 -5
5 -2 10 4 6 3 10 -2 9 -19 -3 -34 2 -29 9 3 5 -1 9 -7 9 -7 0 -40 12 -72 28
-139 65 -262 95 -420 100 -60 2 -137 0 -170 -6z m470 -364 c-9 -31 -15 -58
-12 -61 2 -2 16 14 31 37 15 22 29 39 32 37 2 -3 -3 -27 -11 -54 -21 -69 -19
-72 20 -34 41 40 42 36 14 -31 -12 -27 -19 -52 -16 -55 3 -4 22 4 41 16 41 25
44 19 16 -28 -11 -18 -20 -35 -20 -38 0 -7 42 0 75 12 14 5 8 -6 -18 -33 -44
-47 -39 -53 46 -54 55 0 55 0 -28 -35 l-40 -16 59 -20 c59 -21 62 -37 6 -38
-51 -1 -53 -16 -3 -35 69 -25 72 -33 17 -40 -27 -4 -56 -9 -64 -11 -10 -2 -37
-74 -77 -197 l-62 -193 -96 -38 c-52 -21 -97 -41 -100 -45 -2 -5 28 -30 68
-57 39 -27 91 -66 115 -87 49 -42 277 -306 270 -312 -2 -3 -33 16 -69 41 l-64
45 -5 -38 -5 -38 -23 38 c-28 45 -42 47 -42 7 0 -41 -14 -38 -41 10 -12 22
-25 38 -27 35 -3 -3 -8 -22 -12 -42 l-6 -38 -22 43 c-12 23 -26 42 -30 42 -5
0 -17 -17 -27 -37 l-19 -38 -6 70 c-3 39 -13 83 -22 100 l-16 29 -12 -57 c-6
-31 -16 -59 -21 -62 -14 -10 -11 -21 17 -55 29 -34 25 -53 -4 -27 -12 11 -36
17 -67 17 -41 0 -46 2 -35 15 7 8 21 15 31 15 11 0 19 5 19 11 0 27 -67 134
-115 183 -43 46 -59 55 -98 61 -26 4 -57 15 -70 25 -12 9 -38 20 -58 24 -32 6
-37 3 -47 -19 -7 -14 -12 -32 -12 -40 0 -28 -27 -3 -39 36 -25 84 27 156 194
269 l71 48 46 109 c25 59 56 155 68 212 l22 105 104 115 c63 69 121 145 146
189 22 40 42 71 45 69 2 -3 -3 -30 -12 -62z m-799 -211 c78 -16 80 -17 157
-92 68 -67 87 -93 139 -197 45 -89 62 -133 65 -175 l5 -55 -71 -48 c-39 -26
-73 -47 -75 -47 -2 0 -6 37 -8 83 -4 61 -11 97 -31 139 l-26 56 -53 -14 c-76
-20 -77 -19 -28 31 47 48 44 54 -13 30 -56 -23 -56 -18 -2 30 l50 45 -80 1
-80 1 60 17 c32 10 55 20 50 23 -6 3 -39 12 -75 19 l-65 13 70 11 70 10 -83
34 c-45 18 -81 35 -79 37 2 2 30 -1 61 -7 32 -6 60 -8 63 -5 3 2 -26 21 -63
40 -78 39 -70 43 42 20z"/>
</g>
</svg>
